<?xml version="1.0"?>
<VTKFile type="UnstructuredGrid"  version="0.1"  >
<UnstructuredGrid>
<Piece  NumberOfPoints="216" NumberOfCells="750">
<Points>
<DataArray  type="Float64"  NumberOfComponents="3"  format="ascii">0 0 0  0.2 0 0  0.4 0 0  0.6 0 0  0.8 0 0  1 0 0  0 0.2 0  0.2 0.2 0  0.4 0.2 0  0.6 0.2 0  0.8 0.2 0  1 0.2 0  0 0.4 0  0.2 0.4 0  0.4 0.4 0  0.6 0.4 0  0.8 0.4 0  1 0.4 0  0 0.6 0  0.2 0.6 0  0.4 0.6 0  0.6 0.6 0  0.8 0.6 0  1 0.6 0  0 0.8 0  0.2 0.8 0  0.4 0.8 0  0.6 0.8 0  0.8 0.8 0  1 0.8 0  0 1 0  0.2 1 0  0.4 1 0  0.6 1 0  0.8 1 0  1 1 0  0 0 0.2  0.2 0 0.2  0.4 0 0.2  0.6 0 0.2  0.8 0 0.2  1 0 0.2  0 0.2 0.2  0.2 0.2 0.2  0.4 0.2 0.2  0.6 0.2 0.2  0.8 0.2 0.2  1 0.2 0.2  0 0.4 0.2  0.2 0.4 0.2  0.4 0.4 0.2  0.6 0.4 0.2  0.8 0.4 0.2  1 0.4 0.2  0 0.6 0.2  0.2 0.6 0.2  0.4 0.6 0.2  0.6 0.6 0.2  0.8 0.6 0.2  1 0.6 0.2  0 0.8 0.2  0.2 0.8 0.2  0.4 0.8 0.2  0.6 0.8 0.2  0.8 0.8 0.2  1 0.8 0.2  0 1 0.2  0.2 1 0.2  0.4 1 0.2  0.6 1 0.2  0.8 1 0.2  1 1 0.2  0 0 0.4  0.2 0 0.4  0.4 0 0.4  0.6 0 0.4  0.8 0 0.4  1 0 0.4  0 0.2 0.4  0.2 0.2 0.4  0.4 0.2 0.4  0.6 0.2 0.4  0.8 0.2 0.4  1 0.2 0.4  0 0.4 0.4  0.2 0.4 0.4  0.4 0.4 0.4  0.6 0.4 0.4  0.8 0.4 0.4  1 0.4 0.4  0 0.6 0.4  0.2 0.6 0.4  0.4 0.6 0.4  0.6 0.6 0.4  0.8 0.6 0.4  1 0.6 0.4  0 0.8 0.4  0.2 0.8 0.4  0.4 0.8 0.4  0.6 0.8 0.4  0.8 0.8 0.4  1 0.8 0.4  0 1 0.4  0.2 1 0.4  0.4 1 0.4  0.6 1 0.4  0.8 1 0.4  1 1 0.4  0 0 0.6  0.2 0 0.6  0.4 0 0.6  0.6 0 0.6  0.8 0 0.6  1 0 0.6  0 0.2 0.6  0.2 0.2 0.6  0.4 0.2 0.6  0.6 0.2 0.6  0.8 0.2 0.6  1 0.2 0.6  0 0.4 0.6  0.2 0.4 0.6  0.4 0.4 0.6  0.6 0.4 0.6  0.8 0.4 0.6  1 0.4 0.6  0 0.6 0.6  0.2 0.6 0.6  0.4 0.6 0.6  0.6 0.6 0.6  0.8 0.6 0.6  1 0.6 0.6  0 0.8 0.6  0.2 0.8 0.6  0.4 0.8 0.6  0.6 0.8 0.6  0.8 0.8 0.6  1 0.8 0.6  0 1 0.6  0.2 1 0.6  0.4 1 0.6  0.6 1 0.6  0.8 1 0.6  1 1 0.6  0 0 0.8  0.2 0 0.8  0.4 0 0.8  0.6 0 0.8  0.8 0 0.8  1 0 0.8  0 0.2 0.8  0.2 0.2 0.8  0.4 0.2 0.8  0.6 0.2 0.8  0.8 0.2 0.8  1 0.2 0.8  0 0.4 0.8  0.2 0.4 0.8  0.4 0.4 0.8  0.6 0.4 0.8  0.8 0.4 0.8  1 0.4 0.8  0 0.6 0.8  0.2 0.6 0.8  0.4 0.6 0.8  0.6 0.6 0.8  0.8 0.6 0.8  1 0.6 0.8  0 0.8 0.8  0.2 0.8 0.8  0.4 0.8 0.8  0.6 0.8 0.8  0.8 0.8 0.8  1 0.8 0.8  0 1 0.8  0.2 1 0.8  0.4 1 0.8  0.6 1 0.8  0.8 1 0.8  1 1 0.8  0 0 1  0.2 0 1  0.4 0 1  0.6 0 1  0.8 0 1  1 0 1  0 0.2 1  0.2 0.2 1  0.4 0.2 1  0.6 0.2 1  0.8 0.2 1  1 0.2 1  0 0.4 1  0.2 0.4 1  0.4 0.4 1  0.6 0.4 1  0.8 0.4 1  1 0.4 1  0 0.6 1  0.2 0.6 1  0.4 0.6 1  0.6 0.6 1  0.8 0.6 1  1 0.6 1  0 0.8 1  0.2 0.8 1  0.4 0.8 1  0.6 0.8 1  0.8 0.8 1  1 0.8 1  0 1 1  0.2 1 1  0.4 1 1  0.6 1 1  0.8 1 1  1 1 1  </DataArray>
</Points>
<Cells>
<DataArray  type="UInt32"  Name="connectivity"  format="ascii">0 1 7 43  0 1 37 43  0 36 37 43  0 6 7 43  0 36 42 43  0 6 42 43  1 2 8 44  1 2 38 44  1 37 38 44  1 7 8 44  1 37 43 44  1 7 43 44  2 3 9 45  2 3 39 45  2 38 39 45  2 8 9 45  2 38 44 45  2 8 44 45  3 4 10 46  3 4 40 46  3 39 40 46  3 9 10 46  3 39 45 46  3 9 45 46  4 5 11 47  4 5 41 47  4 40 41 47  4 10 11 47  4 40 46 47  4 10 46 47  6 7 13 49  6 7 43 49  6 42 43 49  6 12 13 49  6 42 48 49  6 12 48 49  7 8 14 50  7 8 44 50  7 43 44 50  7 13 14 50  7 43 49 50  7 13 49 50  8 9 15 51  8 9 45 51  8 44 45 51  8 14 15 51  8 44 50 51  8 14 50 51  9 10 16 52  9 10 46 52  9 45 46 52  9 15 16 52  9 45 51 52  9 15 51 52  10 11 17 53  10 11 47 53  10 46 47 53  10 16 17 53  10 46 52 53  10 16 52 53  12 13 19 55  12 13 49 55  12 48 49 55  12 18 19 55  12 48 54 55  12 18 54 55  13 14 20 56  13 14 50 56  13 49 50 56  13 19 20 56  13 49 55 56  13 19 55 56  14 15 21 57  14 15 51 57  14 50 51 57  14 20 21 57  14 50 56 57  14 20 56 57  15 16 22 58  15 16 52 58  15 51 52 58  15 21 22 58  15 51 57 58  15 21 57 58  16 17 23 59  16 17 53 59  16 52 53 59  16 22 23 59  16 52 58 59  16 22 58 59  18 19 25 61  18 19 55 61  18 54 55 61  18 24 25 61  18 54 60 61  18 24 60 61  19 20 26 62  19 20 56 62  19 55 56 62  19 25 26 62  19 55 61 62  19 25 61 62  20 21 27 63  20 21 57 63  20 56 57 63  20 26 27 63  20 56 62 63  20 26 62 63  21 22 28 64  21 22 58 64  21 57 58 64  21 27 28 64  21 57 63 64  21 27 63 64  22 23 29 65  22 23 59 65  22 58 59 65  22 28 29 65  22 58 64 65  22 28 64 65  24 25 31 67  24 25 61 67  24 60 61 67  24 30 31 67  24 60 66 67  24 30 66 67  25 26 32 68  25 26 62 68  25 61 62 68  25 31 32 68  25 61 67 68  25 31 67 68  26 27 33 69  26 27 63 69  26 62 63 69  26 32 33 69  26 62 68 69  26 32 68 69  27 28 34 70  27 28 64 70  27 63 64 70  27 33 34 70  27 63 69 70  27 33 69 70  28 29 35 71  28 29 65 71  28 64 65 71  28 34 35 71  28 64 70 71  28 34 70 71  36 37 43 79  36 37 73 79  36 72 73 79  36 42 43 79  36 72 78 79  36 42 78 79  37 38 44 80  37 38 74 80  37 73 74 80  37 43 44 80  37 73 79 80  37 43 79 80  38 39 45 81  38 39 75 81  38 74 75 81  38 44 45 81  38 74 80 81  38 44 80 81  39 40 46 82  39 40 76 82  39 75 76 82  39 45 46 82  39 75 81 82  39 45 81 82  40 41 47 83  40 41 77 83  40 76 77 83  40 46 47 83  40 76 82 83  40 46 82 83  42 43 49 85  42 43 79 85  42 78 79 85  42 48 49 85  42 78 84 85  42 48 84 85  43 44 50 86  43 44 80 86  43 79 80 86  43 49 50 86  43 79 85 86  43 49 85 86  44 45 51 87  44 45 81 87  44 80 81 87  44 50 51 87  44 80 86 87  44 50 86 87  45 46 52 88  45 46 82 88  45 81 82 88  45 51 52 88  45 81 87 88  45 51 87 88  46 47 53 89  46 47 83 89  46 82 83 89  46 52 53 89  46 82 88 89  46 52 88 89  48 49 55 91  48 49 85 91  48 84 85 91  48 54 55 91  48 84 90 91  48 54 90 91  49 50 56 92  49 50 86 92  49 85 86 92  49 55 56 92  49 85 91 92  49 55 91 92  50 51 57 93  50 51 87 93  50 86 87 93  50 56 57 93  50 86 92 93  50 56 92 93  51 52 58 94  51 52 88 94  51 87 88 94  51 57 58 94  51 87 93 94  51 57 93 94  52 53 59 95  52 53 89 95  52 88 89 95  52 58 59 95  52 88 94 95  52 58 94 95  54 55 61 97  54 55 91 97  54 90 91 97  54 60 61 97  54 90 96 97  54 60 96 97  55 56 62 98  55 56 92 98  55 91 92 98  55 61 62 98  55 91 97 98  55 61 97 98  56 57 63 99  56 57 93 99  56 92 93 99  56 62 63 99  56 92 98 99  56 62 98 99  57 58 64 100  57 58 94 100  57 93 94 100  57 63 64 100  57 93 99 100  57 63 99 100  58 59 65 101  58 59 95 101  58 94 95 101  58 64 65 101  58 94 100 101  58 64 100 101  60 61 67 103  60 61 97 103  60 96 97 103  60 66 67 103  60 96 102 103  60 66 102 103  61 62 68 104  61 62 98 104  61 97 98 104  61 67 68 104  61 97 103 104  61 67 103 104  62 63 69 105  62 63 99 105  62 98 99 105  62 68 69 105  62 98 104 105  62 68 104 105  63 64 70 106  63 64 100 106  63 99 100 106  63 69 70 106  63 99 105 106  63 69 105 106  64 65 71 107  64 65 101 107  64 100 101 107  64 70 71 107  64 100 106 107  64 70 106 107  72 73 79 115  72 73 109 115  72 108 109 115  72 78 79 115  72 108 114 115  72 78 114 115  73 74 80 116  73 74 110 116  73 109 110 116  73 79 80 116  73 109 115 116  73 79 115 116  74 75 81 117  74 75 111 117  74 110 111 117  74 80 81 117  74 110 116 117  74 80 116 117  75 76 82 118  75 76 112 118  75 111 112 118  75 81 82 118  75 111 117 118  75 81 117 118  76 77 83 119  76 77 113 119  76 112 113 119  76 82 83 119  76 112 118 119  76 82 118 119  78 79 85 121  78 79 115 121  78 114 115 121  78 84 85 121  78 114 120 121  78 84 120 121  79 80 86 122  79 80 116 122  79 115 116 122  79 85 86 122  79 115 121 122  79 85 121 122  80 81 87 123  80 81 117 123  80 116 117 123  80 86 87 123  80 116 122 123  80 86 122 123  81 82 88 124  81 82 118 124  81 117 118 124  81 87 88 124  81 117 123 124  81 87 123 124  82 83 89 125  82 83 119 125  82 118 119 125  82 88 89 125  82 118 124 125  82 88 124 125  84 85 91 127  84 85 121 127  84 120 121 127  84 90 91 127  84 120 126 127  84 90 126 127  85 86 92 128  85 86 122 128  85 121 122 128  85 91 92 128  85 121 127 128  85 91 127 128  86 87 93 129  86 87 123 129  86 122 123 129  86 92 93 129  86 122 128 129  86 92 128 129  87 88 94 130  87 88 124 130  87 123 124 130  87 93 94 130  87 123 129 130  87 93 129 130  88 89 95 131  88 89 125 131  88 124 125 131  88 94 95 131  88 124 130 131  88 94 130 131  90 91 97 133  90 91 127 133  90 126 127 133  90 96 97 133  90 126 132 133  90 96 132 133  91 92 98 134  91 92 128 134  91 127 128 134  91 97 98 134  91 127 133 134  91 97 133 134  92 93 99 135  92 93 129 135  92 128 129 135  92 98 99 135  92 128 134 135  92 98 134 135  93 94 100 136  93 94 130 136  93 129 130 136  93 99 100 136  93 129 135 136  93 99 135 136  94 95 101 137  94 95 131 137  94 130 131 137  94 100 101 137  94 130 136 137  94 100 136 137  96 97 103 139  96 97 133 139  96 132 133 139  96 102 103 139  96 132 138 139  96 102 138 139  97 98 104 140  97 98 134 140  97 133 134 140  97 103 104 140  97 133 139 140  97 103 139 140  98 99 105 141  98 99 135 141  98 134 135 141  98 104 105 141  98 134 140 141  98 104 140 141  99 100 106 142  99 100 136 142  99 135 136 142  99 105 106 142  99 135 141 142  99 105 141 142  100 101 107 143  100 101 137 143  100 136 137 143  100 106 107 143  100 136 142 143  100 106 142 143  108 109 115 151  108 109 145 151  108 144 145 151  108 114 115 151  108 144 150 151  108 114 150 151  109 110 116 152  109 110 146 152  109 145 146 152  109 115 116 152  109 145 151 152  109 115 151 152  110 111 117 153  110 111 147 153  110 146 147 153  110 116 117 153  110 146 152 153  110 116 152 153  111 112 118 154  111 112 148 154  111 147 148 154  111 117 118 154  111 147 153 154  111 117 153 154  112 113 119 155  112 113 149 155  112 148 149 155  112 118 119 155  112 148 154 155  112 118 154 155  114 115 121 157  114 115 151 157  114 150 151 157  114 120 121 157  114 150 156 157  114 120 156 157  115 116 122 158  115 116 152 158  115 151 152 158  115 121 122 158  115 151 157 158  115 121 157 158  116 117 123 159  116 117 153 159  116 152 153 159  116 122 123 159  116 152 158 159  116 122 158 159  117 118 124 160  117 118 154 160  117 153 154 160  117 123 124 160  117 153 159 160  117 123 159 160  118 119 125 161  118 119 155 161  118 154 155 161  118 124 125 161  118 154 160 161  118 124 160 161  120 121 127 163  120 121 157 163  120 156 157 163  120 126 127 163  120 156 162 163  120 126 162 163  121 122 128 164  121 122 158 164  121 157 158 164  121 127 128 164  121 157 163 164  121 127 163 164  122 123 129 165  122 123 159 165  122 158 159 165  122 128 129 165  122 158 164 165  122 128 164 165  123 124 130 166  123 124 160 166  123 159 160 166  123 129 130 166  123 159 165 166  123 129 165 166  124 125 131 167  124 125 161 167  124 160 161 167  124 130 131 167  124 160 166 167  124 130 166 167  126 127 133 169  126 127 163 169  126 162 163 169  126 132 133 169  126 162 168 169  126 132 168 169  127 128 134 170  127 128 164 170  127 163 164 170  127 133 134 170  127 163 169 170  127 133 169 170  128 129 135 171  128 129 165 171  128 164 165 171  128 134 135 171  128 164 170 171  128 134 170 171  129 130 136 172  129 130 166 172  129 165 166 172  129 135 136 172  129 165 171 172  129 135 171 172  130 131 137 173  130 131 167 173  130 166 167 173  130 136 137 173  130 166 172 173  130 136 172 173  132 133 139 175  132 133 169 175  132 168 169 175  132 138 139 175  132 168 174 175  132 138 174 175  133 134 140 176  133 134 170 176  133 169 170 176  133 139 140 176  133 169 175 176  133 139 175 176  134 135 141 177  134 135 171 177  134 170 171 177  134 140 141 177  134 170 176 177  134 140 176 177  135 136 142 178  135 136 172 178  135 171 172 178  135 141 142 178  135 171 177 178  135 141 177 178  136 137 143 179  136 137 173 179  136 172 173 179  136 142 143 179  136 172 178 179  136 142 178 179  144 145 151 187  144 145 181 187  144 180 181 187  144 150 151 187  144 180 186 187  144 150 186 187  145 146 152 188  145 146 182 188  145 181 182 188  145 151 152 188  145 181 187 188  145 151 187 188  146 147 153 189  146 147 183 189  146 182 183 189  146 152 153 189  146 182 188 189  146 152 188 189  147 148 154 190  147 148 184 190  147 183 184 190  147 153 154 190  147 183 189 190  147 153 189 190  148 149 155 191  148 149 185 191  148 184 185 191  148 154 155 191  148 184 190 191  148 154 190 191  150 151 157 193  150 151 187 193  150 186 187 193  150 156 157 193  150 186 192 193  150 156 192 193  151 152 158 194  151 152 188 194  151 187 188 194  151 157 158 194  151 187 193 194  151 157 193 194  152 153 159 195  152 153 189 195  152 188 189 195  152 158 159 195  152 188 194 195  152 158 194 195  153 154 160 196  153 154 190 196  153 189 190 196  153 159 160 196  153 189 195 196  153 159 195 196  154 155 161 197  154 155 191 197  154 190 191 197  154 160 161 197  154 190 196 197  154 160 196 197  156 157 163 199  156 157 193 199  156 192 193 199  156 162 163 199  156 192 198 199  156 162 198 199  157 158 164 200  157 158 194 200  157 193 194 200  157 163 164 200  157 193 199 200  157 163 199 200  158 159 165 201  158 159 195 201  158 194 195 201  158 164 165 201  158 194 200 201  158 164 200 201  159 160 166 202  159 160 196 202  159 195 196 202  159 165 166 202  159 195 201 202  159 165 201 202  160 161 167 203  160 161 197 203  160 196 197 203  160 166 167 203  160 196 202 203  160 166 202 203  162 163 169 205  162 163 199 205  162 198 199 205  162 168 169 205  162 198 204 205  162 168 204 205  163 164 170 206  163 164 200 206  163 199 200 206  163 169 170 206  163 199 205 206  163 169 205 206  164 165 171 207  164 165 201 207  164 200 201 207  164 170 171 207  164 200 206 207  164 170 206 207  165 166 172 208  165 166 202 208  165 201 202 208  165 171 172 208  165 201 207 208  165 171 207 208  166 167 173 209  166 167 203 209  166 202 203 209  166 172 173 209  166 202 208 209  166 172 208 209  168 169 175 211  168 169 205 211  168 204 205 211  168 174 175 211  168 204 210 211  168 174 210 211  169 170 176 212  169 170 206 212  169 205 206 212  169 175 176 212  169 205 211 212  169 175 211 212  170 171 177 213  170 171 207 213  170 206 207 213  170 176 177 213  170 206 212 213  170 176 212 213  171 172 178 214  171 172 208 214  171 207 208 214  171 177 178 214  171 207 213 214  171 177 213 214  172 173 179 215  172 173 209 215  172 208 209 215  172 178 179 215  172 208 214 215  172 178 214 215  </DataArray>
<DataArray  type="UInt32"  Name="offsets"  format="ascii">4 8 12 16 20 24 28 32 36 40 44 48 52 56 60 64 68 72 76 80 84 88 92 96 100 104 108 112 116 120 124 128 132 136 140 144 148 152 156 160 164 168 172 176 180 184 188 192 196 200 204 208 212 216 220 224 228 232 236 240 244 248 252 256 260 264 268 272 276 280 284 288 292 296 300 304 308 312 316 320 324 328 332 336 340 344 348 352 356 360 364 368 372 376 380 384 388 392 396 400 404 408 412 416 420 424 428 432 436 440 444 448 452 456 460 464 468 472 476 480 484 488 492 496 500 504 508 512 516 520 524 528 532 536 540 544 548 552 556 560 564 568 572 576 580 584 588 592 596 600 604 608 612 616 620 624 628 632 636 640 644 648 652 656 660 664 668 672 676 680 684 688 692 696 700 704 708 712 716 720 724 728 732 736 740 744 748 752 756 760 764 768 772 776 780 784 788 792 796 800 804 808 812 816 820 824 828 832 836 840 844 848 852 856 860 864 868 872 876 880 884 888 892 896 900 904 908 912 916 920 924 928 932 936 940 944 948 952 956 960 964 968 972 976 980 984 988 992 996 1000 1004 1008 1012 1016 1020 1024 1028 1032 1036 1040 1044 1048 1052 1056 1060 1064 1068 1072 1076 1080 1084 1088 1092 1096 1100 1104 1108 1112 1116 1120 1124 1128 1132 1136 1140 1144 1148 1152 1156 1160 1164 1168 1172 1176 1180 1184 1188 1192 1196 1200 1204 1208 1212 1216 1220 1224 1228 1232 1236 1240 1244 1248 1252 1256 1260 1264 1268 1272 1276 1280 1284 1288 1292 1296 1300 1304 1308 1312 1316 1320 1324 1328 1332 1336 1340 1344 1348 1352 1356 1360 1364 1368 1372 1376 1380 1384 1388 1392 1396 1400 1404 1408 1412 1416 1420 1424 1428 1432 1436 1440 1444 1448 1452 1456 1460 1464 1468 1472 1476 1480 1484 1488 1492 1496 1500 1504 1508 1512 1516 1520 1524 1528 1532 1536 1540 1544 1548 1552 1556 1560 1564 1568 1572 1576 1580 1584 1588 1592 1596 1600 1604 1608 1612 1616 1620 1624 1628 1632 1636 1640 1644 1648 1652 1656 1660 1664 1668 1672 1676 1680 1684 1688 1692 1696 1700 1704 1708 1712 1716 1720 1724 1728 1732 1736 1740 1744 1748 1752 1756 1760 1764 1768 1772 1776 1780 1784 1788 1792 1796 1800 1804 1808 1812 1816 1820 1824 1828 1832 1836 1840 1844 1848 1852 1856 1860 1864 1868 1872 1876 1880 1884 1888 1892 1896 1900 1904 1908 1912 1916 1920 1924 1928 1932 1936 1940 1944 1948 1952 1956 1960 1964 1968 1972 1976 1980 1984 1988 1992 1996 2000 2004 2008 2012 2016 2020 2024 2028 2032 2036 2040 2044 2048 2052 2056 2060 2064 2068 2072 2076 2080 2084 2088 2092 2096 2100 2104 2108 2112 2116 2120 2124 2128 2132 2136 2140 2144 2148 2152 2156 2160 2164 2168 2172 2176 2180 2184 2188 2192 2196 2200 2204 2208 2212 2216 2220 2224 2228 2232 2236 2240 2244 2248 2252 2256 2260 2264 2268 2272 2276 2280 2284 2288 2292 2296 2300 2304 2308 2312 2316 2320 2324 2328 2332 2336 2340 2344 2348 2352 2356 2360 2364 2368 2372 2376 2380 2384 2388 2392 2396 2400 2404 2408 2412 2416 2420 2424 2428 2432 2436 2440 2444 2448 2452 2456 2460 2464 2468 2472 2476 2480 2484 2488 2492 2496 2500 2504 2508 2512 2516 2520 2524 2528 2532 2536 2540 2544 2548 2552 2556 2560 2564 2568 2572 2576 2580 2584 2588 2592 2596 2600 2604 2608 2612 2616 2620 2624 2628 2632 2636 2640 2644 2648 2652 2656 2660 2664 2668 2672 2676 2680 2684 2688 2692 2696 2700 2704 2708 2712 2716 2720 2724 2728 2732 2736 2740 2744 2748 2752 2756 2760 2764 2768 2772 2776 2780 2784 2788 2792 2796 2800 2804 2808 2812 2816 2820 2824 2828 2832 2836 2840 2844 2848 2852 2856 2860 2864 2868 2872 2876 2880 2884 2888 2892 2896 2900 2904 2908 2912 2916 2920 2924 2928 2932 2936 2940 2944 2948 2952 2956 2960 2964 2968 2972 2976 2980 2984 2988 2992 2996 3000 </DataArray>
<DataArray  type="UInt8"  Name="types"  format="ascii">10 10 10 10 10 10 10 10 10 10 10 10 10 10 10 10 10 10 10 10 10 10 10 10 10 10 10 10 10 10 10 10 10 10 10 10 10 10 10 10 10 10 10 10 10 10 10 10 10 10 10 10 10 10 10 10 10 10 10 10 10 10 10 10 10 10 10 10 10 10 10 10 10 10 10 10 10 10 10 10 10 10 10 10 10 10 10 10 10 10 10 10 10 10 10 10 10 10 10 10 10 10 10 10 10 10 10 10 10 10 10 10 10 10 10 10 10 10 10 10 10 10 10 10 10 10 10 10 10 10 10 10 10 10 10 10 10 10 10 10 10 10 10 10 10 10 10 10 10 10 10 10 10 10 10 10 10 10 10 10 10 10 10 10 10 10 10 10 10 10 10 10 10 10 10 10 10 10 10 10 10 10 10 10 10 10 10 10 10 10 10 10 10 10 10 10 10 10 10 10 10 10 10 10 10 10 10 10 10 10 10 10 10 10 10 10 10 10 10 10 10 10 10 10 10 10 10 10 10 10 10 10 10 10 10 10 10 10 10 10 10 10 10 10 10 10 10 10 10 10 10 10 10 10 10 10 10 10 10 10 10 10 10 10 10 10 10 10 10 10 10 10 10 10 10 10 10 10 10 10 10 10 10 10 10 10 10 10 10 10 10 10 10 10 10 10 10 10 10 10 10 10 10 10 10 10 10 10 10 10 10 10 10 10 10 10 10 10 10 10 10 10 10 10 10 10 10 10 10 10 10 10 10 10 10 10 10 10 10 10 10 10 10 10 10 10 10 10 10 10 10 10 10 10 10 10 10 10 10 10 10 10 10 10 10 10 10 10 10 10 10 10 10 10 10 10 10 10 10 10 10 10 10 10 10 10 10 10 10 10 10 10 10 10 10 10 10 10 10 10 10 10 10 10 10 10 10 10 10 10 10 10 10 10 10 10 10 10 10 10 10 10 10 10 10 10 10 10 10 10 10 10 10 10 10 10 10 10 10 10 10 10 10 10 10 10 10 10 10 10 10 10 10 10 10 10 10 10 10 10 10 10 10 10 10 10 10 10 10 10 10 10 10 10 10 10 10 10 10 10 10 10 10 10 10 10 10 10 10 10 10 10 10 10 10 10 10 10 10 10 10 10 10 10 10 10 10 10 10 10 10 10 10 10 10 10 10 10 10 10 10 10 10 10 10 10 10 10 10 10 10 10 10 10 10 10 10 10 10 10 10 10 10 10 10 10 10 10 10 10 10 10 10 10 10 10 10 10 10 10 10 10 10 10 10 10 10 10 10 10 10 10 10 10 10 10 10 10 10 10 10 10 10 10 10 10 10 10 10 10 10 10 10 10 10 10 10 10 10 10 10 10 10 10 10 10 10 10 10 10 10 10 10 10 10 10 10 10 10 10 10 10 10 10 10 10 10 10 10 10 10 10 10 10 10 10 10 10 10 10 10 10 10 10 10 10 10 10 10 10 10 10 10 10 10 10 10 10 10 10 10 10 10 10 10 10 10 10 10 10 10 10 10 10 10 10 10 10 10 10 10 10 10 10 10 10 10 10 10 10 10 10 10 10 10 10 10 10 10 10 10 10 10 10 10 10 10 10 10 10 10 10 10 10 10 10 10 10 10 10 10 10 10 10 10 10 10 10 10 10 10 10 10 10 10 10 10 10 10 10 10 10 10 10 10 10 10 10 10 10 </DataArray>
</Cells>
<PointData  Vectors="f_22"> 
<DataArray  type="Float64"  Name="f_22"  NumberOfComponents="3" format="ascii">0.0000000000000000e+00 0.0000000000000000e+00 0.0000000000000000e+00  0.0000000000000000e+00 0.0000000000000000e+00 0.0000000000000000e+00  0.0000000000000000e+00 0.0000000000000000e+00 0.0000000000000000e+00  0.0000000000000000e+00 0.0000000000000000e+00 0.0000000000000000e+00  0.0000000000000000e+00 0.0000000000000000e+00 0.0000000000000000e+00  0.0000000000000000e+00 0.0000000000000000e+00 0.0000000000000000e+00  0.0000000000000000e+00 0.0000000000000000e+00 0.0000000000000000e+00  1.2033457999087404e-04 1.1791604390884927e-04 -6.1685529218797275e-01  4.5950559886792132e-04 3.9178531558578598e-04 -6.3365371640560941e-01  9.3025860744405697e-04 3.5793083590010349e-04 -6.3132570250421316e-01  1.6422168118992453e-03 3.9210355247664634e-04 -6.0667151543178965e-01  0.0000000000000000e+00 0.0000000000000000e+00 0.0000000000000000e+00  0.0000000000000000e+00 0.0000000000000000e+00 0.0000000000000000e+00  3.9307478771066296e-04 4.5889580140970245e-04 -6.3365785886198112e-01  6.7271120922236696e-04 6.7026663162221220e-04 -6.5645294511770336e-01  9.1747767679552705e-04 6.6942953009178137e-04 -6.5494355948588090e-01  1.6937409298237221e-03 5.5968459085549741e-04 -6.2682696268586902e-01  0.0000000000000000e+00 0.0000000000000000e+00 0.0000000000000000e+00  0.0000000000000000e+00 0.0000000000000000e+00 0.0000000000000000e+00  3.5770785882147522e-04 9.2944045174776281e-04 -6.3134668431610785e-01  6.7140357799341170e-04 9.1649514225811536e-04 -6.5495417985529469e-01  7.8132285738277403e-04 7.8055539645436407e-04 -6.5356348926286001e-01  1.5626429264535642e-03 5.3865561392424572e-04 -6.2681919073616243e-01  0.0000000000000000e+00 0.0000000000000000e+00 0.0000000000000000e+00  0.0000000000000000e+00 0.0000000000000000e+00 0.0000000000000000e+00  3.9186556724083116e-04 1.6424224692183900e-03 -6.0668446746236981e-01  5.6099192338838924e-04 1.6932031107254051e-03 -6.2684142416975253e-01  5.3996072548068575e-04 1.5616327801836632e-03 -6.2683227775320172e-01  1.1188988046366890e-03 1.1191382002248308e-03 -6.1681339274726055e-01  0.0000000000000000e+00 0.0000000000000000e+00 0.0000000000000000e+00  0.0000000000000000e+00 0.0000000000000000e+00 0.0000000000000000e+00  0.0000000000000000e+00 0.0000000000000000e+00 0.0000000000000000e+00  0.0000000000000000e+00 0.0000000000000000e+00 0.0000000000000000e+00  0.0000000000000000e+00 0.0000000000000000e+00 0.0000000000000000e+00  0.0000000000000000e+00 0.0000000000000000e+00 0.0000000000000000e+00  0.0000000000000000e+00 0.0000000000000000e+00 0.0000000000000000e+00  0.0000000000000000e+00 0.0000000000000000e+00 0.0000000000000000e+00  0.0000000000000000e+00 0.0000000000000000e+00 0.0000000000000000e+00  0.0000000000000000e+00 0.0000000000000000e+00 0.0000000000000000e+00  0.0000000000000000e+00 0.0000000000000000e+00 0.0000000000000000e+00  0.0000000000000000e+00 0.0000000000000000e+00 0.0000000000000000e+00  0.0000000000000000e+00 0.0000000000000000e+00 0.0000000000000000e+00  0.0000000000000000e+00 0.0000000000000000e+00 0.0000000000000000e+00  2.7750659520965078e-04 2.7671788878453707e-04 -6.1498206805441702e-01  4.5439484609102683e-04 7.5761241641115587e-05 -6.2745604161968771e-01  5.9749450410110305e-04 1.1389935680806006e-04 -6.2679361393509092e-01  5.7094726706453090e-04 1.8004830572294244e-04 -6.0473450366861370e-01  0.0000000000000000e+00 0.0000000000000000e+00 0.0000000000000000e+00  0.0000000000000000e+00 0.0000000000000000e+00 0.0000000000000000e+00  7.5567027287254301e-05 4.5131913017141211e-04 -6.2746406352002093e-01  7.1015299587843389e-04 7.0675795658767802e-04 -6.5502389186956100e-01  6.7609243174344361e-04 7.2581727525759636e-04 -6.5495850382232179e-01  7.0498773536427177e-04 7.1305839077791928e-04 -6.2889629489622301e-01  0.0000000000000000e+00 0.0000000000000000e+00 0.0000000000000000e+00  0.0000000000000000e+00 0.0000000000000000e+00 0.0000000000000000e+00  1.1407916642516722e-04 5.9685539029058433e-04 -6.2681162069067564e-01  7.2783160978964236e-04 6.7387251948865224e-04 -6.5497326010913437e-01  6.2714661027659074e-04 6.2388317575623920e-04 -6.5437837323895365e-01  6.8552167703065628e-04 5.9060459251373501e-04 -6.2921048069517860e-01  0.0000000000000000e+00 0.0000000000000000e+00 0.0000000000000000e+00  0.0000000000000000e+00 0.0000000000000000e+00 0.0000000000000000e+00  1.7986966222004498e-04 5.7068040372101024e-04 -6.0474911329283998e-01  7.1417810382186830e-04 7.0479853437681219e-04 -6.2891565628101320e-01  5.9364184005136007e-04 6.8486179434852851e-04 -6.2921335433974102e-01  6.8377330336045073e-04 6.8295954934129578e-04 -6.1722342934236207e-01  0.0000000000000000e+00 0.0000000000000000e+00 0.0000000000000000e+00  0.0000000000000000e+00 0.0000000000000000e+00 0.0000000000000000e+00  0.0000000000000000e+00 0.0000000000000000e+00 0.0000000000000000e+00  0.0000000000000000e+00 0.0000000000000000e+00 0.0000000000000000e+00  0.0000000000000000e+00 0.0000000000000000e+00 0.0000000000000000e+00  0.0000000000000000e+00 0.0000000000000000e+00 0.0000000000000000e+00  0.0000000000000000e+00 0.0000000000000000e+00 0.0000000000000000e+00  0.0000000000000000e+00 0.0000000000000000e+00 0.0000000000000000e+00  0.0000000000000000e+00 0.0000000000000000e+00 0.0000000000000000e+00  0.0000000000000000e+00 0.0000000000000000e+00 0.0000000000000000e+00  0.0000000000000000e+00 0.0000000000000000e+00 0.0000000000000000e+00  0.0000000000000000e+00 0.0000000000000000e+00 0.0000000000000000e+00  0.0000000000000000e+00 0.0000000000000000e+00 0.0000000000000000e+00  0.0000000000000000e+00 0.0000000000000000e+00 0.0000000000000000e+00  2.7994245636484260e-04 2.7991740653456932e-04 -6.2107910820882850e-01  5.0408921208998500e-04 4.6087304014201047e-04 -6.3356769003253710e-01  1.3755602334983900e-03 5.3736762172383623e-04 -6.3251667420560265e-01  1.4127294308047594e-03 4.8404495862886649e-04 -6.0733676298590833e-01  0.0000000000000000e+00 0.0000000000000000e+00 0.0000000000000000e+00  0.0000000000000000e+00 0.0000000000000000e+00 0.0000000000000000e+00  4.6180063082532449e-04 5.0400876126847102e-04 -6.3357400149042575e-01  6.1160182070732884e-04 6.1148569001498313e-04 -6.5769241056103167e-01  1.4047195245575374e-03 7.4290157629355760e-04 -6.5754413248535670e-01  1.5811228734164086e-03 7.6187055286876726e-04 -6.2924854734546665e-01  0.0000000000000000e+00 0.0000000000000000e+00 0.0000000000000000e+00  0.0000000000000000e+00 0.0000000000000000e+00 0.0000000000000000e+00  5.3700091665500444e-04 1.3737441418417461e-03 -6.3254047240373268e-01  7.4299270099111524e-04 1.4015620918728653e-03 -6.5756272170114494e-01  1.4179543948828804e-03 1.4150534954759119e-03 -6.5749592630358855e-01  1.4067743525560681e-03 1.1156892514820346e-03 -6.3011724099377675e-01  0.0000000000000000e+00 0.0000000000000000e+00 0.0000000000000000e+00  0.0000000000000000e+00 0.0000000000000000e+00 0.0000000000000000e+00  4.8333891467974063e-04 1.4119097117685200e-03 -6.0735034170656566e-01  7.6143044291245271e-04 1.5803536640407764e-03 -6.2927647461571634e-01  1.1180075734499926e-03 1.4053649133258710e-03 -6.3012463406370434e-01  9.2463721059176914e-04 9.2267021991187799e-04 -6.1659384525985084e-01  0.0000000000000000e+00 0.0000000000000000e+00 0.0000000000000000e+00  0.0000000000000000e+00 0.0000000000000000e+00 0.0000000000000000e+00  0.0000000000000000e+00 0.0000000000000000e+00 0.0000000000000000e+00  0.0000000000000000e+00 0.0000000000000000e+00 0.0000000000000000e+00  0.0000000000000000e+00 0.0000000000000000e+00 0.0000000000000000e+00  0.0000000000000000e+00 0.0000000000000000e+00 0.0000000000000000e+00  0.0000000000000000e+00 0.0000000000000000e+00 0.0000000000000000e+00  0.0000000000000000e+00 0.0000000000000000e+00 0.0000000000000000e+00  0.0000000000000000e+00 0.0000000000000000e+00 0.0000000000000000e+00  0.0000000000000000e+00 0.0000000000000000e+00 0.0000000000000000e+00  0.0000000000000000e+00 0.0000000000000000e+00 0.0000000000000000e+00  0.0000000000000000e+00 0.0000000000000000e+00 0.0000000000000000e+00  0.0000000000000000e+00 0.0000000000000000e+00 0.0000000000000000e+00  0.0000000000000000e+00 0.0000000000000000e+00 0.0000000000000000e+00  2.3372509656514736e-03 2.3375102237908731e-03 -6.1697341453405852e-01  1.1838569870422772e-03 3.3677963974170387e-03 -6.2783577178716798e-01  2.5222832151866343e-03 3.3556552382858844e-03 -6.2547715186824682e-01  1.5140110818305940e-03 2.5208919547272455e-03 -6.0002049230539245e-01  0.0000000000000000e+00 0.0000000000000000e+00 0.0000000000000000e+00  0.0000000000000000e+00 0.0000000000000000e+00 0.0000000000000000e+00  3.3671494309994317e-03 1.1830113707110251e-03 -6.2784178992017514e-01  1.0307066614512128e-03 1.0296006122659678e-03 -6.5136858806121434e-01  2.3999719474940432e-03 7.0051858526661026e-04 -6.5107682185611226e-01  1.5588674143077966e-03 4.6732616517195809e-04 -6.2236153709100273e-01  0.0000000000000000e+00 0.0000000000000000e+00 0.0000000000000000e+00  0.0000000000000000e+00 0.0000000000000000e+00 0.0000000000000000e+00  3.3554824535375646e-03 2.5211076752208283e-03 -6.2550593710359759e-01  7.0171513219534441e-04 2.3996965498897251e-03 -6.5110623164774839e-01  1.8449942962795172e-03 1.8445730235331964e-03 -6.5251908224071098e-01  1.3937813313799632e-03 6.0640571923996551e-04 -6.2523557604529367e-01  0.0000000000000000e+00 0.0000000000000000e+00 0.0000000000000000e+00  0.0000000000000000e+00 0.0000000000000000e+00 0.0000000000000000e+00  2.5208055512025793e-03 1.5132287078011581e-03 -6.0003893657343887e-01  4.6773460706940134e-04 1.5581025898834882e-03 -6.2238965703879123e-01  6.0750115431184963e-04 1.3923655290961402e-03 -6.2525918802574942e-01  3.7758166423407355e-04 3.7639623041292749e-04 -6.1280480114646552e-01  0.0000000000000000e+00 0.0000000000000000e+00 0.0000000000000000e+00  0.0000000000000000e+00 0.0000000000000000e+00 0.0000000000000000e+00  0.0000000000000000e+00 0.0000000000000000e+00 0.0000000000000000e+00  0.0000000000000000e+00 0.0000000000000000e+00 0.0000000000000000e+00  0.0000000000000000e+00 0.0000000000000000e+00 0.0000000000000000e+00  0.0000000000000000e+00 0.0000000000000000e+00 0.0000000000000000e+00  0.0000000000000000e+00 0.0000000000000000e+00 0.0000000000000000e+00  0.0000000000000000e+00 0.0000000000000000e+00 0.0000000000000000e+00  0.0000000000000000e+00 0.0000000000000000e+00 0.0000000000000000e+00  0.0000000000000000e+00 0.0000000000000000e+00 0.0000000000000000e+00  0.0000000000000000e+00 0.0000000000000000e+00 0.0000000000000000e+00  0.0000000000000000e+00 0.0000000000000000e+00 0.0000000000000000e+00  0.0000000000000000e+00 0.0000000000000000e+00 0.0000000000000000e+00  0.0000000000000000e+00 0.0000000000000000e+00 0.0000000000000000e+00  1.5507251749114876e-03 1.5500588381344039e-03 -6.1619050977376255e-01  5.2208836770656255e-04 3.9401180346263819e-03 -6.3015699118213431e-01  1.1523426129255673e-03 3.9477520803798830e-03 -6.3259012529658587e-01  2.2970781011354040e-03 2.8244238964805972e-03 -6.0999536969052348e-01  0.0000000000000000e+00 0.0000000000000000e+00 0.0000000000000000e+00  0.0000000000000000e+00 0.0000000000000000e+00 0.0000000000000000e+00  3.9407709284669523e-03 5.2205654761291662e-04 -6.3016566880517511e-01  8.8944868885678448e-04 8.8850641849927599e-04 -6.5717089132209339e-01  7.5959054823992436e-04 8.1644405477059522e-04 -6.6102416018471000e-01  1.4955265050965113e-03 6.4623450524922753e-04 -6.3292211879872073e-01  0.0000000000000000e+00 0.0000000000000000e+00 0.0000000000000000e+00  0.0000000000000000e+00 0.0000000000000000e+00 0.0000000000000000e+00  3.9477619976322244e-03 1.1519214289361654e-03 -6.3261063068541534e-01  8.1641603394206307e-04 7.5838429280490095e-04 -6.6104636451216259e-01  4.6179674666294761e-04 4.5818821443024206e-04 -6.6526353250949155e-01  1.3723899656957587e-03 1.2180773713733213e-04 -6.3732488270420895e-01  0.0000000000000000e+00 0.0000000000000000e+00 0.0000000000000000e+00  0.0000000000000000e+00 0.0000000000000000e+00 0.0000000000000000e+00  2.8243390216674655e-03 2.2977732943640652e-03 -6.1000709783747753e-01  6.4631576097429547e-04 1.4958282053710746e-03 -6.3295182983705667e-01  1.2273467173439117e-04 1.3722507421426533e-03 -6.3735027517895237e-01  4.3644424805373448e-04 4.3502864202996918e-04 -6.1915383132790047e-01  0.0000000000000000e+00 0.0000000000000000e+00 0.0000000000000000e+00  0.0000000000000000e+00 0.0000000000000000e+00 0.0000000000000000e+00  0.0000000000000000e+00 0.0000000000000000e+00 0.0000000000000000e+00  0.0000000000000000e+00 0.0000000000000000e+00 0.0000000000000000e+00  0.0000000000000000e+00 0.0000000000000000e+00 0.0000000000000000e+00  0.0000000000000000e+00 0.0000000000000000e+00 0.0000000000000000e+00  0.0000000000000000e+00 0.0000000000000000e+00 0.0000000000000000e+00  0.0000000000000000e+00 0.0000000000000000e+00 0.0000000000000000e+00  0.0000000000000000e+00 0.0000000000000000e+00 0.0000000000000000e+00  0.0000000000000000e+00 0.0000000000000000e+00 0.0000000000000000e+00  0.0000000000000000e+00 0.0000000000000000e+00 0.0000000000000000e+00  0.0000000000000000e+00 0.0000000000000000e+00 0.0000000000000000e+00  0.0000000000000000e+00 0.0000000000000000e+00 0.0000000000000000e+00  0.0000000000000000e+00 0.0000000000000000e+00 0.0000000000000000e+00  -4.5725656423978799e-05 -4.4697152925827874e-05 -6.1016804660035040e-01  1.4823415853579245e-04 -2.8975871819281853e-03 -6.2745193430585133e-01  -4.8443828565175015e-04 -3.1251290560372551e-03 -6.3006312788223051e-01  -2.6767623384696881e-03 -2.1189005317224304e-03 -5.9757517366850910e-01  0.0000000000000000e+00 0.0000000000000000e+00 0.0000000000000000e+00  0.0000000000000000e+00 0.0000000000000000e+00 0.0000000000000000e+00  -2.8994452346618551e-03 1.4809304105901905e-04 -6.2745878698669244e-01  6.6152356754604750e-04 6.6295876426985894e-04 -6.4110501602889824e-01  3.6927521274049288e-04 1.2333199469113270e-03 -6.4829657055692480e-01  -2.7442746661982323e-04 1.1523788906941165e-03 -6.1457501397256487e-01  0.0000000000000000e+00 0.0000000000000000e+00 0.0000000000000000e+00  0.0000000000000000e+00 0.0000000000000000e+00 0.0000000000000000e+00  -3.1256471525177333e-03 -4.8472901714604043e-04 -6.3008885431129669e-01  1.2330437186606252e-03 3.6867804795797542e-04 -6.4833489608966455e-01  2.6364748870019093e-04 2.6706426093642212e-04 -6.5766750044978861e-01  -5.0657949673818049e-04 2.5842995487178439e-05 -6.2402517806513569e-01  0.0000000000000000e+00 0.0000000000000000e+00 0.0000000000000000e+00  0.0000000000000000e+00 0.0000000000000000e+00 0.0000000000000000e+00  -2.1192775840867960e-03 -2.6788345957944868e-03 -5.9761483938547599e-01  1.1520135098634207e-03 -2.7669425350958568e-04 -6.1462943645006207e-01  2.5382481658696850e-05 -5.0729622124486712e-04 -6.2405628309693761e-01  -3.6839631189661872e-04 -3.6767967985814628e-04 -5.9627933395143851e-01  0.0000000000000000e+00 0.0000000000000000e+00 0.0000000000000000e+00  0.0000000000000000e+00 0.0000000000000000e+00 0.0000000000000000e+00  0.0000000000000000e+00 0.0000000000000000e+00 0.0000000000000000e+00  0.0000000000000000e+00 0.0000000000000000e+00 0.0000000000000000e+00  0.0000000000000000e+00 0.0000000000000000e+00 0.0000000000000000e+00  0.0000000000000000e+00 0.0000000000000000e+00 0.0000000000000000e+00  0.0000000000000000e+00 0.0000000000000000e+00 0.0000000000000000e+00  </DataArray> 
</PointData> 
</Piece>
</UnstructuredGrid>
</VTKFile>